<svg width="19" height="24" viewBox="0 0 19 24" fill="none" xmlns="http://www.w3.org/2000/svg">
<g id="Icon">
<path fill-rule="evenodd" clip-rule="evenodd" d="M18.0806 2.60022H14.8077L13.3245 0.884074C12.7817 0.317991 12.051 0.000533542 11.2897 0H7.71032C6.93581 0.00687243 6.19538 0.338759 5.65097 0.923077L4.19226 2.60022H0.919355C0.411609 2.60022 0 3.03678 0 3.5753C0 4.11382 0.411609 4.55038 0.919355 4.55038H18.0806C18.5884 4.55038 19 4.11382 19 3.5753C19 3.03678 18.5884 2.60022 18.0806 2.60022ZM6.97484 2.26219C7.17047 2.05597 7.43451 1.93928 7.71032 1.93716H11.2897C11.5541 1.93633 11.8086 2.04339 12.0006 2.23619L12.3071 2.58722H6.6929L6.97484 2.26219Z" fill="#A9A9A9"/>
<path fill-rule="evenodd" clip-rule="evenodd" d="M0.281934 8.47671V18.2015C0.281934 21.4039 2.72964 24 5.74903 24H13.251C16.2704 24 18.7181 21.4039 18.7181 18.2015V8.47671C18.7181 7.04065 17.6204 5.87649 16.2665 5.87649H2.78258C2.12392 5.86252 1.48767 6.13028 1.01724 6.61944C0.546817 7.1086 0.281803 7.77798 0.281934 8.47671ZM6.74194 13.0661C6.74194 13.6046 6.33033 14.0412 5.82258 14.0412C5.31484 14.0412 4.90323 13.6046 4.90323 13.0661V9.98483C4.90323 9.44631 5.31484 9.00975 5.82258 9.00975C6.33033 9.00975 6.74194 9.44631 6.74194 9.98483V13.0661ZM9.5 19.1766C10.0077 19.1766 10.4194 18.74 10.4194 18.2015V9.98483C10.4194 9.44631 10.0077 9.00975 9.5 9.00975C8.99225 9.00975 8.58065 9.44631 8.58065 9.98483V18.2015C8.58065 18.74 8.99225 19.1766 9.5 19.1766ZM14.0968 13.0661C14.0968 13.6046 13.6852 14.0412 13.1774 14.0412C12.6697 14.0412 12.2581 13.6046 12.2581 13.0661V9.98483C12.2581 9.44631 12.6697 9.00975 13.1774 9.00975C13.6852 9.00975 14.0968 9.44631 14.0968 9.98483V13.0661Z" fill="#A9A9A9"/>
</g>
</svg>
